/* XPM */
static char *idleframe71706335570[] = {
/* columns rows colors chars-per-pixel */
"37 51 23 1 ",
"  c None",
". c #331A19",
"X c #341A25",
"o c #3C1E2B",
"O c #4D2D2C",
"+ c #452432",
"@ c #4F2A3A",
"# c #5C3747",
"$ c #442B61",
"% c #745663",
"& c #7C5969",
"* c red",
"= c #CE2038",
"- c #8A0B41",
"; c #8A767E",
": c #331685",
"> c #432792",
", c #5F4181",
"< c #9A7686",
"1 c #9E7688",
"2 c #97828A",
"3 c #97828B",
"4 c #BEACB3",
/* pixels */
"                 @++                 ",
"                @@++++               ",
"                @@@++++              ",
"                @@@@+++++            ",
"                 @@@@++++++          ",
"                  @@@@++++++         ",
"                   @@@@++++++        ",
"                    @@@@+++++++      ",
"                     @@@@+++++++     ",
"                      @ooo+++++++    ",
"                       o;ooo++++++   ",
"                       o*;ooo++++++  ",
"                       o43;oooo+++++ ",
"                    ==-oo43  ooooooo ",
"                 =====---o--=  oooo  ",
"               =========--====       ",
"              ==========--=====      ",
"              ==-----------=====     ",
"             ---##oo2222-----====    ",
"             ####oo32223.2223---=    ",
"            ###oooo34444.4223###X    ",
"           #####o#o44444.4223###X    ",
"           #####ooo3444.44222###X    ",
"           o#####ooo344.42222###XX   ",
"           oo######o224.4222#####X   ",
"           ooo####oo233.4222#XX##X   ",
"           ooooooooo=23.4222XXXXXX   ",
"            ooooooo&1....2<%%XXXXX   ",
"             ooooo&&13...<<>%%XXX    ",
"              ooo&&&1144<<%:%%       ",
"                oo&&&144<<%%444      ",
"                 =2&&111>%%34444     ",
"                 3333;;&:%%<2444     ",
"                 444$$$$..<<22444    ",
"                44,,,$$3...3323444   ",
"                ,,,,$433.OO..33344   ",
"               ,%>$$442..OOOO.33344  ",
"             ,,,$$44422..OOOOO..3324 ",
"           ,,,$$444422..OO..OOO...33 ",
"         ,,,$$ 4444422..OO...OOOOO.. ",
"       ,,,$$    44422..OO.O.O.OOOOOOO",
"      ,,$$     44442.OOO....O...OOOOO",
"    ,,,$      44422..OOO......O.OOOOO",
"  ,,,$$       4442..OOOO.............",
",,,$$        44422.OO..OO............",
"$$$          4432..O.....O...........",
"            44332................... ",
"            4233...............OO.O. ",
"           433..O.............OO.... ",
"           3.44..O...........OO.344. ",
"           .3322................3334 "
};
