/* XPM */
static char *db02f97447e94e809e41b4b4d86b516cnY0M9OQ8aOfw2u8z[] = {
/* columns rows colors chars-per-pixel */
"32 32 6 1 ",
"  c None",
". c #3F1714",
"X c #193D3F",
"o c #F42C17",
"O c #D10420",
"+ c white",
/* pixels */
"                                ",
"                                ",
"                                ",
"                                ",
"                                ",
"                                ",
"                                ",
"                                ",
"                                ",
"                                ",
"                                ",
"                                ",
"                                ",
"            ........            ",
"          ..oooooooo..          ",
"        ..oooooooooooo..        ",
"       .oooooooooooooooo.       ",
"      .oooooooooooooooooo.      ",
"     .ooooo+++ooooooo+++oo.     ",
"    .ooooo+++++ooooo+++++oo.    ",
"    .ooooo+++XXooooo+++XXoo.    ",
"   .oooooo++XXXooooo++XXXooo.   ",
"   .oooooo++XXXooooo++XXXooo.   ",
"   .oooooo++XXXooooo++XXXooo.   ",
"  .oooooooo+XXOoooooo+XXOoooo.  ",
"  .oooooooooooooooooooooooooo.  ",
"  .oooooooooooooooooooooooooo.  ",
"  .oooooooooooooooooooooooooo.  ",
"  .OooooooooooooooooooooooooO.  ",
"  .OOooooooooooooooooooooooOO.  ",
"   .OOOOOOOOOOOOOOOOOOOOOOOO.   ",
"    ........................    "
};
