/* XPM */
static char *result[] = {
/* columns rows colors chars-per-pixel */
"32 32 16 1 ",
"  c black",
". c #170917",
"X c #160B16",
"o c #170A17",
"O c #170B17",
"+ c #150C15",
"@ c #150E15",
"# c #160C16",
"$ c #160D16",
"% c #170C17",
"& c #170D17",
"* c #160E16",
"= c #170E17",
"- c #464646",
"; c gray36",
": c None",
/* pixels */
"= ;;::::::::::::::::::::::::::::",
"::::::::::::::::::::::::::::::::",
":::::::--;-  --;;;-   ---:::::::",
"::::::-  ;  -    ; --- ---::::::",
":::::- --;--;;;;;;---- ----:::::",
":::   ---;;-;-------;;;  ---::::",
"::: -;;;--;===&&&&===-;;      ::",
":: ;;;-;;-==&%%&=&&===-;;---- ::",
"::;;   --==%o.###*%%&== ;--;; ::",
"::;--- -==&.*@+#o#*&&&==--;;;;::",
"::---  ===%@@@*#XO@+%%&==;;  ;::",
"::-- --===*@==**#X%@+&%==-  -;::",
"::- --====@@===*#XO*+@%%== ---::",
"::-   ====@%%%%=*#X=#@*%== ---::",
"::-- -====@***%%*#X=##@%&=  --::",
"::- --===**=***###X%*&@#&=- ;;::",
"::;;--===@%*****##XO***+%=-;;-::",
"::;--;===@&@*O%*#*$$=**@%=;;  ::",
"::;--;===*=@@O=*****==*@&&;- ;::",
":: ;-;====*@@X=**#*====@*&--;;::",
":: --;==&&&&@#$**#======*=-;;-::",
"::  ;;=&%%##@%##*##=====*=-;--::",
"::- ;-==***@@%****$*===#==-;--::",
"::-;;-=******#**O****=@&==- --::",
"::-; -=====*****O#**$#@@*=- --::",
"::-; -=======***O***#$***=- ;;::",
"::;- -=&&%%%%**%#**@&**===-;; ::",
"::;-  ********=***#%*@*=== ;  ::",
"::;-- ==*@@@@@@@@#&*@*====; ;;::",
"::;-- ====&&#+++++@@*=====- ; ::",
"::::::::::::::::::::::::::::::::",
"::::::::::::::::::::::::::::::::"
};
