/* XPM */
static char *ba6ab824ff7f49d7e3ea25274753242dcuk9U8Io215VVoqb[] = {
/* columns rows colors chars-per-pixel */
"32 32 7 1 ",
"  c None",
". c black",
"X c #FFBB00",
"o c #FFC20E",
"O c #027699",
"+ c #00B7EF",
"@ c white",
/* pixels */
"                                ",
"                                ",
"                                ",
"                                ",
"                                ",
"                                ",
"             .....              ",
"            .oXXXo.             ",
"           .oXXoXXo.            ",
"          .ooXXooXXo.           ",
"         .ooXoXXXXXXo.          ",
"         .oXXoXXoooXo.          ",
"        .oXXoOOOOOooXo.         ",
"        .XXoO+++++OoXX.         ",
"        .XoO+@.+@.+OoX.         ",
"        .XoO+@.+@.+OoX.         ",
"        .XO+++++++++OX.         ",
"        .oOOOOOOOOOOOo.         ",
"        .ooooXXXXooXXo.         ",
"         .oXXXXXoXXXo.          ",
"         .oXoXXXXXoXo.          ",
"          .XXoooXXoX.           ",
"           .XXooooo.            ",
"            .oXXXo.             ",
"             .....              ",
"                                ",
"                                ",
"                                ",
"                                ",
"                                ",
"                                ",
"                                "
};
