/* XPM */
static char *a5e075742e0c416cdb642b326bc9ece3VIuZjrIfhzJutX3V[] = {
/* columns rows colors chars-per-pixel */
"32 32 4 1 ",
"  c black",
". c #1A131A",
"X c #333133",
"o c #464646",
/* pixels */
"X  o XXXoooo XXXXooo oo      o o",
"X    ooXXXoXXXoooXXXXooX oX    X",
" X        X  o  oo     XXX     X",
"oXo ........................ oX ",
"oXo ........................ oX ",
"o X ........................  X ",
"  X ........................  XX",
"oo X........................ Xoo",
"o oX........................ Xoo",
" ooX........................XXXX",
"  XX........................X   ",
"o X ........................Xo o",
"  X ........................Xoo ",
"oX  ........................Xoo ",
" X  ........................X   ",
"o o ........................Xooo",
"  o ........................ X X",
"Xoo ........................ XXo",
"X   ........................  XX",
" Xo ........................ ooo",
" Xo ........................ ooo",
"oXo ........................   o",
"  X ........................    ",
" oX ........................ oo ",
" oX ........................ o o",
"o X ........................ o o",
"  X ........................    ",
"X o ........................ ooX",
"X                XXX      X  XXo",
" X   oXXXXX  ooXXoooXXoo XX  Xoo",
" XXXXXXXXXXX XX       X  oXXX   ",
" oooXX   ooo X       ooX oXo Xo "
};
