/* XPM */
static char *_3beb1e7bba34f22de13385f0fa0ae1a4L1y8YosHZg3H84P[] = {
/* columns rows colors chars-per-pixel */
"32 32 5 1 ",
"  c None",
". c black",
"X c #170E17",
"o c #464646",
"O c gray36",
/* pixels */
"                                ",
"                                ",
"                                ",
"                                ",
"                                ",
"            o..O.oo.            ",
"           o.O.OO...o           ",
"          OO.o....OO.O          ",
"         O..XXXXXXXX..O         ",
"        OO.XXXXXXXXXXo..        ",
"       ....XXXXXXXXXXo.OO       ",
"       o.oXXXXXXXXXXXX..O       ",
"       OO.XXXXXXXXXXXXo..       ",
"       ..OXXXXXXXXXXXX...       ",
"       .OOXXXXXXXXXXXXO.o       ",
"       O..XXXXXXXXXXXXO..       ",
"       OooXXXXXXXXXXXXoo.       ",
"       .O.XXXXXXXXXXXX..o       ",
"       .OoXXXXXXXXXXXXo.O       ",
"       .oOXXXXXXXXXXXXo.O       ",
"       oOOXXXXXXXXXXXX.O.       ",
"       oOoXXXXXXXXXXXX.Oo       ",
"       OO.XXXXXXXXXXXXoOo       ",
"       .O.XXXXXXXXXXXXoo.       ",
"                                ",
"                                ",
"                                ",
"                                ",
"                                ",
"                                ",
"                                ",
"                                "
};
