/* XPM */
static char *_21bdece84d244ded4876d4340c693e7UDeVO0RgRYBPDFZC[] = {
/* columns rows colors chars-per-pixel */
"33 32 4 1 ",
"  c #227A2E",
". c #2CB82C",
"X c #45E02D",
"o c #CBF558",
/* pixels */
"..XXooooooooooooooooooooooooooooo",
".XXXooooooooooooooooooooooooooooo",
"XXXXXoooooooooooooooooooooooooooo",
"XXXXXXooooooooooooooooooooooooooo",
"oXXXXooooooooXooooooooooooooooooo",
"oooXooooooooooooooooooooooooooooo",
"ooooooooooooooooooooooooooooooooo",
"ooooooooooooooooooooooooooooooooo",
"ooooooooooooooooooooooooooooooooo",
"ooooooooooooooooooooooooooooooooo",
"ooooooooooooooooooooXoooooooooooo",
"ooooooooooooooXoXooXXXooXoXoooooo",
"oooooooXXooXXXXXXXXXXXXXXXXXooooo",
"oooooXXXXXXXXXXXXXXXX X  XXXXXXXo",
"ooooo  XX XXXX X  XX o oo XXXX  o",
"ooooooo  o    o oo  oooooo XX ooo",
"ooooooooooooooooooooooooooo  oooo",
"ooooooooooooooooooooooooooooooooo",
"ooooooooooooooooooooooooooooooooo",
"ooooooooooooooooooooooooooooooooo",
"ooooooooooooooooooooooooooooooooo",
"ooooooooooooooooooooooooooooooooo",
"ooooooooooooooooooooooooooooooooo",
"ooooooooooooooooooooooooooooooooo",
"XXXXXoXoXXXXXXooooooooooooooooooo",
" X X XXX X  X ooooooooooooooooooo",
"o o o   o oo oooooooooooooooooooo",
"ooooooooooooooooooooooooooooooooo",
"ooooooooooooooooooooooooooooooooo",
"ooooooooooooooooooooooooooooooooo",
"ooooooooooooooooooooooooooooooooo",
"ooooooooooooooooooooooooooooooooo"
};
