/* XPM */
static char *idleframe41706335569[] = {
/* columns rows colors chars-per-pixel */
"37 50 23 1 ",
"  c None",
". c #331A19",
"X c #341A25",
"o c #3C1E2B",
"O c #4D2D2C",
"+ c #452432",
"@ c #4F2A3A",
"# c #5C3747",
"$ c #442B61",
"% c #745663",
"& c #7C5969",
"* c red",
"= c #CE2038",
"- c #8A0B41",
"; c #8A767E",
": c #331685",
"> c #432792",
", c #5F4181",
"< c #9A7686",
"1 c #9E7688",
"2 c #97828A",
"3 c #97828B",
"4 c #BEACB3",
/* pixels */
"                 @++                 ",
"                @@++++               ",
"                @@@++++              ",
"                @@@@+++++            ",
"                 @@@@++++++          ",
"                  @@@@++++++         ",
"                   @@@@++++++        ",
"                    @@@@+++++++      ",
"                     @@@@+++++++     ",
"                      @ooo+++++++    ",
"                       o;ooo++++++   ",
"                       o*;ooo++++++  ",
"                       o43;oooo+++++ ",
"                    ==-oo43  ooooooo ",
"                 =====---o--=  ooo+  ",
"               -------------==       ",
"              --###oo222------==     ",
"              -###ooo222.22222---    ",
"              ####oo2222.222222#X    ",
"            #####oo32223.2222###X    ",
"           ####oooo34444.4222###X    ",
"           o######o44444.4222###X    ",
"           oo######3444.44222####X   ",
"           ooo####oo344.4222#XX##X   ",
"           ooooooooo224.4222XXXXXX   ",
"            ooooooo&122.42<%%XXXXX   ",
"             ooooo&&122.4<<%%%XXX    ",
"              ooo&&&11...<%>%%-      ",
"                oo&&&14.<<%:---      ",
"                   &&111<%%444       ",
"                  333&&&>%%4444      ",
"                  333&&&:3334444     ",
"                 333,$$$3.332444     ",
"                 4,,,$$3..3322444    ",
"                ,,>%$433...2222444   ",
"               ,,,$$4433.OO..22244   ",
"             ,,,$$44442..OOOO.22344  ",
"           ,,,$$4444422..OOOOO..3324 ",
"         ,,,$$  444422..OO..OOO...33 ",
"       ,,,$$   4444422..OO...OOOOO.. ",
"      ,,$$     444422..OO.O.O.OOOOOOO",
"    ,,,$      444422.OOO....O...OOOOO",
"  ,,,$$       44422.OOOO......O.OOOOO",
",,,$$        44422.OO..OO............",
"$$$          4432..O.....O...........",
"            44332................... ",
"            4233...............OO.O. ",
"           422..O.............OO.... ",
"           3.44..O...........OO.344. ",
"           .3333................3334 "
};
