/* XPM */
static char *idleframe51706335570[] = {
/* columns rows colors chars-per-pixel */
"37 49 23 1 ",
"  c None",
". c #331A19",
"X c #341A25",
"o c #3C1E2B",
"O c #4D2D2C",
"+ c #452432",
"@ c #4F2A3A",
"# c #5C3747",
"$ c #442B61",
"% c #745663",
"& c #7C5969",
"* c red",
"= c #CE2038",
"- c #8A0B41",
"; c #8A767E",
": c #331685",
"> c #432792",
", c #5F4181",
"< c #9A7686",
"1 c #9E7688",
"2 c #97828A",
"3 c #97828B",
"4 c #BEACB3",
/* pixels */
"                 @++                 ",
"                @@++++               ",
"                @@@++++              ",
"                @@@@+++++            ",
"                 @@@@++++++          ",
"                  @@@@++++++         ",
"                   @@@@++++++        ",
"                    @@@@+++++++      ",
"                     @@@@+++++++     ",
"                      @ooo+++++++    ",
"                       o;ooo++++++   ",
"                       o*;ooo++++++  ",
"                       o43;oooo+++++ ",
"                    ==-oo43  ooooooo ",
"                 =====---o--=  oooo  ",
"               ===-==-==--====       ",
"              =-------------===      ",
"              --##ooo222------==     ",
"              -###oo2222.22233-==    ",
"             ####oo32223.2223###X    ",
"            ###oooo34444.4222###X    ",
"           #####o#o44444.4222##XX    ",
"           o#####oo3444.44222###XX   ",
"           oo######o344.42222####X   ",
"           ooo####oo224.4222#XX##X   ",
"           ooooooooo222.4222XXXXXX   ",
"            ooooooo&123.42<%%XXXXX   ",
"             ooooo&&1....<<%%%XXX    ",
"              ooo&&&11...<%>%%       ",
"                oo&&&144<<%:444      ",
"                  2&&111<%%34444     ",
"                 2223&&&>%%33444     ",
"                 4444;;%:.1<22444    ",
"                4444$$$$...2222444   ",
"                44,,,$$3.OO..22244   ",
"                ,,,,$43X.OOOO.22244  ",
"               ,%>$$422..OOOOO..2224 ",
"             ,,,$$4422..OO..OOO...22 ",
"           ,,,$$444422..OO...OOOOO.. ",
"         ,,,$$ 444422..OO.O.O.OOOOOOO",
"       ,,,$$  444422.OOO....O...OOOOO",
"      ,,$$    44422.OOOO......O.OOOOO",
"    ,,,$     44422.OO..OO............",
"  ,,,$$      4432..O.....O...........",
",,,$$       44333................... ",
"$$$         4333...............OO.O. ",
"           422..O.............OO.... ",
"           2.44..O...........OO.244. ",
"           .3333................2224 "
};
