/* XPM */
static char *_e989f4e09ef447fd8bda68dafc04b6ahaWhRPX2NXQmEZ9e[] = {
/* columns rows colors chars-per-pixel */
"37 51 23 1 ",
"  c None",
". c #331A19",
"X c #341A25",
"o c #3C1E2B",
"O c #4D2D2C",
"+ c #452432",
"@ c #4F2A3A",
"# c #5C3747",
"$ c #442B61",
"% c #745663",
"& c #7C5969",
"* c red",
"= c #CE2038",
"- c #8A0B41",
"; c #8A767E",
": c #331685",
"> c #432792",
", c #5F4181",
"< c #9A7686",
"1 c #9E7688",
"2 c #97828A",
"3 c #97828B",
"4 c #BEACB3",
/* pixels */
"                 @++                 ",
"                @@++++               ",
"                @@@++++              ",
"                @@@@+++++            ",
"                 @@@@++++++          ",
"                  @@@@++++++         ",
"                   @@@@++++++        ",
"                    @@@@+++++++      ",
"                     @@@@+++++++     ",
"                      @ooo+++++++    ",
"                       o;ooo++++++   ",
"                       o*;ooo++++++  ",
"                       o43;oooo+++++ ",
"                    ==-oo43  ooooooo ",
"                 =====---o--=  oooo  ",
"               -------------==       ",
"              --###oo333------==     ",
"              -###ooo333.33333---    ",
"              ####oo3333.333333#X    ",
"            #####oo33333.3333###X    ",
"           ####oooo34444.4333###X    ",
"           o######o44444.4333###X    ",
"           oo######3444.44333####X   ",
"           ooo####oo344.4333#XX##X   ",
"           ooooooooo334.4333XXXXXX   ",
"         ===ooooooo&133.43<%%XXXXX   ",
"        ==---ooooo&&133.4<<%%%XXX    ",
"            --ooo&&&11...<%>%%       ",
"            ==- oo&&&14.<<%:         ",
"           ==-     &&111<%%444       ",
"                  333&&&>%%4444      ",
"                  333&&&:3334444     ",
"                 333,$$$3.333444     ",
"                 4,,,$$3..3333444    ",
"                ,,,,$433...3333444   ",
"               ,,,$$4433.OO..33344   ",
"             ,,,$$44443..OOOO.33344  ",
"           ,,,$$4444433..OOOOO..3334 ",
"         ,,,$$  444433..OO..OOO...33 ",
"       ,,,$$   4444433..OO...OOOOO.. ",
"      ,,$$     444433..OO.O.O.OOOOOOO",
"    ,,,$       44433.OOO....O...OOOOO",
"  ,,,$$       44433.OOOO......O.OOOOO",
",,,$$         4443..OOO.....OO.......",
"$$$          44433.OO..OO............",
"             4433..O.....O...........",
"            44333................... ",
"            4333...............OO.O. ",
"           433..O.............OO.... ",
"           3.44..O...........OO.344. ",
"           .3333................3334 "
};
