/* XPM */
static char *_7e7bab584ff4f7ea17882090a49833fSIe3V6Di5RhW35UA[] = {
/* columns rows colors chars-per-pixel */
"32 32 7 1 ",
"  c black",
". c #1A131A",
"X c #333133",
"o c #464646",
"O c #824815",
"+ c #A1662F",
"@ c white",
/* pixels */
"X  o    +Ooo XXXXooo O+      o o",
"X    ooo+OoXXXXXXXXXX+OX oo    X",
" X      +O         +X+O+XX     X",
"oXo ....O+OO.+..+++OOOO+.... oX ",
"oXo ....O@+OOOOOOOOO+@OO.... oX ",
"o X ....O+..+OOO++...OOO....  X ",
"  X ....O+...........O+O....  XX",
"oo X....+O...........O+..... Xoo",
"o oX....+O...........OO+.... Xoo",
" ooX....+O...........+++....XXXX",
"  XX....++.++++.++++++OO....X   ",
"o X ....+@+OOOOOOOOO+O@O....Xo o",
"  X ....++++O+OOO+..+O+O....Xoo ",
"oX  ....+O...........OOO....Xoo ",
" X  ...OOO...........O++....X   ",
"o o ...OOO...........OO+....Xooo",
"  o ...OO++++........+O+.... X X",
"Xoo ...O++OOOOO+.....+++.... XXo",
"X   ...O+@..++OOOO++++@+....  XX",
" Xo ...+++....+++OOOO+O+.... ooo",
" Xo ....++............OO.... ooo",
"oXo ....OO............+O....   o",
"  X ....+O.+OO++OO++..++....    ",
" oX ....+O+++OOOOOO+++++.... oo ",
" oX ....+@++......OOO+@+.... o o",
"o X ....+OO...........OO.... o o",
"  X ....+O+...........OO....    ",
"X o ....OOO...........OO.... ooX",
"X                XXX      X  XXo",
" X   oXXXXX  ooXXoooXXoo XX  Xoo",
" XXXXXXXXXXX XX       X  oXXX   ",
" oooXX   ooo X       ooX oXo Xo "
};
