/* XPM */
static char *e6a3926e89b64eef862ecdfb6603cf195fdA9UJ5pwY7Rsxm[] = {
/* columns rows colors chars-per-pixel */
"32 32 5 1 ",
"  c None",
". c #193D3F",
"X c #0484D1",
"o c #2CE8F4",
"O c white",
/* pixels */
"                                ",
"                                ",
"                                ",
"                                ",
"                                ",
"                                ",
"                                ",
"                                ",
"                                ",
"                                ",
"                                ",
"                                ",
"                                ",
"            ........            ",
"          ..oooooooo..          ",
"        ..oooooooooooo..        ",
"       .oooooooooooooooo.       ",
"      .oooooooooooooooooo.      ",
"     .ooOOOoooooooOOOooooo.     ",
"    .ooOOOOOoooooOOOOOooooo.    ",
"    .oo..OOOooooo..OOOooooo.    ",
"   .ooo...OOooooo...OOoooooo.   ",
"   .ooo...OOooooo...OOoooooo.   ",
"   .ooo...OOooooo...OOoooooo.   ",
"  .ooooX..OooooooX..Ooooooooo.  ",
"  .oooooooooooooooooooooooooo.  ",
"  .ooooooooooooooooooooooooXX.  ",
"  .ooooooooooooooooooooooXXXX.  ",
"  .XooooooooooooooooooooXXXXX.  ",
"  .XXoooooooooooooooooXXXXXXX.  ",
"   .XXXXXXXXXXXXXXXXXXXXXXXX.   ",
"    ........................    "
};
