/* XPM */
static char *_2ac1ffa5cc74f18d63b9b13712b7c5f6bj12sPZboW1Yuiw[] = {
/* columns rows colors chars-per-pixel */
"32 32 5 1 ",
"  c None",
". c #193D3F",
"X c #0484D1",
"o c #2CE8F4",
"O c white",
/* pixels */
"                                ",
"                                ",
"                                ",
"                                ",
"                                ",
"                                ",
"                                ",
"                                ",
"                                ",
"                                ",
"                                ",
"                                ",
"                                ",
"            ........            ",
"          ..oooooooo..          ",
"        ..oooooooooooo..        ",
"       .oooooooooooooooo.       ",
"      .oooooooooooooooooo.      ",
"     .oooooOOOoooooooOOOoo.     ",
"    .oooooOOOOOoooooOOOOOoo.    ",
"    .oooooOOO..oooooOOO..oo.    ",
"   .ooooooOO...oooooOO...ooo.   ",
"   .ooooooOO...oooooOO...ooo.   ",
"   .ooooooOO...oooooOO...ooo.   ",
"  .ooooooooO..XooooooO..Xoooo.  ",
"  .oooooooooooooooooooooooooo.  ",
"  .XXoooooooooooooooooooooooo.  ",
"  .XXXXoooooooooooooooooooooo.  ",
"  .XXXXXooooooooooooooooooooX.  ",
"  .XXXXXXXoooooooooooooooooXX.  ",
"   .XXXXXXXXXXXXXXXXXXXXXXXX.   ",
"    ........................    "
};
