/* XPM */
static char *e9e5aa9375da4954c03b0cee1d7438aeZ5lt2G5l8FVDt0Dk[] = {
/* columns rows colors chars-per-pixel */
"32 32 5 1 ",
"  c None",
". c #193D3F",
"X c #0484D1",
"o c #2CE8F4",
"O c white",
/* pixels */
"                                ",
"                                ",
"                                ",
"                                ",
"                                ",
"                                ",
"                                ",
"                                ",
"                                ",
"                                ",
"                                ",
"                                ",
"                                ",
"            ........            ",
"          ..oooooooo..          ",
"        ..oooooooooooo..        ",
"       .oooooooooooooooo.       ",
"      .oooooooooooooooooo.      ",
"     .ooooo...oooo...ooooo.     ",
"    .oooooO...OooO...Oooooo.    ",
"    .oooooO...OooO...Oooooo.    ",
"   .ooooooO...OooO...Ooooooo.   ",
"   .ooooooOOOOOooOOOOOoooooo.   ",
"   .ooooooOOOOOooOOOOOoooooo.   ",
"  .ooooooooOOOooooOOOoooooooo.  ",
"  .oooooooooooooooooooooooooo.  ",
"  .oooooooooooooooooooooooooo.  ",
"  .oooooooooooooooooooooooooo.  ",
"  .XooooooooooooooooooooooooX.  ",
"  .XXooooooooooooooooooooooXX.  ",
"   .XXXXXXXXXXXXXXXXXXXXXXXX.   ",
"    ........................    "
};
