/* XPM */
static char *b64ac01292f94540935f74e0af2aef26SvvrnmaPF3tEWqA2[] = {
/* columns rows colors chars-per-pixel */
"16 16 10 1 ",
"  c None",
". c black",
"X c #474A57",
"o c #525766",
"O c #545866",
"+ c #636773",
"@ c gray46",
"# c #777E96",
"$ c gray52",
"% c #858CA6",
/* pixels */
"                ",
"      ..        ",
"     .##.       ",
"   ..+o%#.      ",
"   .$.oo#.      ",
"  .+.OoX.       ",
" .#oooX.        ",
" .#%oX.@.       ",
"  .##. .@.      ",
"   ..   .$.     ",
"         .$.    ",
"          .$.   ",
"           .$.  ",
"            .$. ",
"             .$.",
"              .."
};
