/* XPM */
static char *_083d3565f9947b8d1b6844a476fb44fWNpynPBdohWzOqnQ[] = {
/* columns rows colors chars-per-pixel */
"32 32 43 1 ",
"  c None",
". c #21181B",
"X c #3B2027",
"o c #7D3833",
"O c #AB5130",
"+ c #CF752B",
"@ c #F0B541",
"# c #FFEE83",
"$ c #C8D45D",
"% c #63AB3F",
"& c #3B7D4F",
"* c #2F5753",
"= c #283540",
"- c #1B1F21",
"; c #2B2B45",
": c #3A3F5E",
"> c #4C6885",
", c #4FA4B8",
"< c #92E8C0",
"1 c #F5FFE8",
"2 c #DFE0E8",
"3 c #A3A7C2",
"4 c #686F99",
"5 c #404973",
"6 c #2C354D",
"7 c #14182E",
"8 c #4B1D52",
"9 c #692464",
"0 c #9C2A70",
"q c #CC2F7B",
"w c #FF5277",
"e c #FFC2A1",
"r c #FF8933",
"t c #E64539",
"y c #AD2F45",
"u c #781D4F",
"i c #4F1D4C",
"p c #291D2B",
"a c #3D2936",
"s c #52333F",
"d c #8F4D57",
"f c #BD6A62",
"g c #FFAE70",
/* pixels */
"                                ",
"                                ",
"                                ",
"                                ",
"                                ",
"                                ",
"                                ",
"                                ",
"                                ",
"                                ",
"                                ",
"                                ",
"................................",
".oooooooooooooooooooooooooooooo.",
".aXXXXXXXXXXXXXXXXXXXXXXXXXXXXo.",
".aXooXXoXXXXXXXXXXoooooooXoooXo.",
".aXXXXXXXXXXXXXXXXXXXXXXXXXXXXo.",
".aaaaaaaXXaaaaaaaaaaaaXXaaaaaao.",
"................................",
"                                ",
"                                ",
"                                ",
"                                ",
"                                ",
"                                ",
"                                ",
"                                ",
"                                ",
"                                ",
"                                ",
"                                ",
"                                "
};
